<?xml version="1.0" ?>
<!DOCTYPE svg  PUBLIC '-//W3C//DTD SVG 1.1//EN'  'http://www.w3.org/Graphics/SVG/1.1/DTD/svg11.dtd'>
<!-- Uploaded to: SVG Repo, www.svgrepo.com, Generator: SVG Repo Mixer Tools -->
<svg fill="#000000" width="800px" height="800px" viewBox="0 0 32 32" style="fill-rule:evenodd;clip-rule:evenodd;stroke-linejoin:round;stroke-miterlimit:2;" version="1.1" xml:space="preserve" xmlns="http://www.w3.org/2000/svg" xmlns:serif="http://www.serif.com/" xmlns:xlink="http://www.w3.org/1999/xlink">
<g id="Layer1">
<path d="M27,3c-0,-0.552 -0.448,-1 -1,-1l-20,0c-0.552,0 -1,0.448 -1,1l-0,26c0,0.552 0.448,1 1,1l20,0c0.552,0 1,-0.448 1,-1l-0,-26Zm-2,1l-0,24c-0,0 -18,0 -18,0c-0,-0 -0,-24 -0,-24l18,0Zm-9,10c-3.311,0 -6,2.689 -6,6c-0,3.311 2.689,6 6,6c3.311,0 6,-2.689 6,-6c-0,-3.311 -2.689,-6 -6,-6Zm-1,2.126c-1.724,0.445 -3,2.012 -3,3.874c-0,2.208 1.792,4 4,4c1.862,0 3.429,-1.276 3.874,-3l-3.874,0c-0.552,0 -1,-0.448 -1,-1l0,-3.874Zm-2,-4.126l6,0c0.552,0 1,-0.448 1,-1c0,-0.552 -0.448,-1 -1,-1l-6,0c-0.552,0 -1,0.448 -1,1c0,0.552 0.448,1 1,1Zm-2,-4l10,0c0.552,0 1,-0.448 1,-1c0,-0.552 -0.448,-1 -1,-1l-10,0c-0.552,0 -1,0.448 -1,1c0,0.552 0.448,1 1,1Z"/>
</g>
</svg>