<?xml version="1.0" encoding="utf-8"?>
<!-- Uploaded to: SVG Repo, www.svgrepo.com, Generator: SVG Repo Mixer Tools -->
<svg width="800px" height="800px" viewBox="0 0 1024 1024" fill="#000000" class="icon"  version="1.1" xmlns="http://www.w3.org/2000/svg"><path d="M272.016 512c-79.394 0-143.992-64.598-143.992-143.992 0-79.392 64.598-143.99 143.992-143.99 79.392 0 143.99 64.598 143.99 143.99 0 79.394-64.598 143.992-143.99 143.992z m0-271.984c-70.574 0-127.992 57.42-127.992 127.992 0 70.574 57.418 127.992 127.992 127.992s127.992-57.418 127.992-127.992c0-70.572-57.418-127.992-127.992-127.992z" fill="" /><path d="M272.016 543.998c-79.394 0-143.992-64.598-143.992-143.992 0-4.42 3.578-7.998 8-7.998s8 3.578 8 7.998c0 70.574 57.418 127.994 127.992 127.994s127.992-57.42 127.992-127.994a7.994 7.994 0 0 1 8-7.998 7.994 7.994 0 0 1 7.998 7.998c0 79.394-64.598 143.992-143.99 143.992z" fill="" /><path d="M136.024 408.006c-4.422 0-8-3.578-8-8v-31.998c0-4.42 3.578-7.998 8-7.998s8 3.578 8 7.998v31.998c0 4.422-3.578 8-8 8zM408.008 408.006c-4.422 0-8-3.578-8-8v-31.998a7.994 7.994 0 0 1 8-7.998 7.994 7.994 0 0 1 7.998 7.998v31.998c0 4.422-3.578 8-7.998 8zM272.016 432.004c-35.288 0-63.996-28.708-63.996-63.996s28.708-63.996 63.996-63.996 63.996 28.708 63.996 63.996-28.71 63.996-63.996 63.996z m0-111.992c-26.466 0-47.998 21.53-47.998 47.996 0 26.468 21.532 47.998 47.998 47.998s47.996-21.53 47.996-47.998c0-26.466-21.53-47.996-47.996-47.996z" fill="" /><path d="M325.7 392.008a8.008 8.008 0 0 1-7.672-5.718c-5.998-20.188-24.92-34.28-46.012-34.28s-40.014 14.092-46.014 34.28a7.994 7.994 0 0 1-9.952 5.39 8.012 8.012 0 0 1-5.39-9.954c8.008-26.912 33.232-45.716 61.356-45.716s53.348 18.804 61.356 45.716a8.012 8.012 0 0 1-5.39 9.954 8.348 8.348 0 0 1-2.282 0.328zM231.94 335.932a7.976 7.976 0 0 1-5.656-2.344l-56.074-56.074a8 8 0 0 1 11.312-11.31l56.074 56.074a7.996 7.996 0 0 1-5.656 13.654zM272.016 512c-4.422 0-8-3.578-8-8v-79.994c0-4.422 3.578-8 8-8s8 3.578 8 8V504c0 4.422-3.578 8-8 8zM528 96.026h-31.998c-4.422 0-8-3.578-8-8V56.028c0-4.422 3.578-8 8-8H528c4.422 0 8 3.578 8 8v31.998c0 4.422-3.578 8-8 8z m-23.998-16H520v-15.998h-15.998v15.998z" fill="" /><path d="M983.972 767.984H40.03c-4.422 0-8-3.578-8-8V152.022c0-4.422 3.578-8 8-8h943.944c4.422 0 8 3.578 8 8v607.962a8 8 0 0 1-8.002 8z m-935.942-16h927.944V160.022H48.03v591.962z" fill="" /><path d="M1015.97 160.022H8.032c-4.422 0-8-3.578-8-8V88.026c0-4.422 3.578-8 8-8h1007.94a7.994 7.994 0 0 1 7.998 8v63.996a7.998 7.998 0 0 1-8 8z m-999.938-16h991.94V96.026H16.032v47.996z" fill="" /><path d="M967.972 128.024H56.03c-4.422 0-8-3.578-8-8s3.578-8 8-8h911.944c4.422 0 8 3.578 8 8s-3.58 8-8.002 8zM727.988 975.972a8.08 8.08 0 0 1-3.578-0.844l-215.988-107.994c-3.952-1.968-5.552-6.782-3.576-10.734s6.788-5.53 10.732-3.578l215.988 107.994a8 8 0 1 1-3.578 15.156zM791.984 975.972a8.08 8.08 0 0 1-3.578-0.844l-279.984-139.992c-3.952-1.968-5.552-6.782-3.576-10.734s6.788-5.546 10.732-3.578l279.984 139.992a8 8 0 1 1-3.578 15.156z" fill="" /><path d="M791.984 975.972h-63.996c-4.422 0-8-3.578-8-8s3.578-8 8-8h63.996c4.422 0 8 3.578 8 8s-3.578 8-8 8zM296.022 975.972a8.012 8.012 0 0 1-7.164-4.422 7.996 7.996 0 0 1 3.578-10.734l215.986-107.994a8.02 8.02 0 0 1 10.734 3.578 7.996 7.996 0 0 1-3.578 10.734l-215.986 107.994a8.096 8.096 0 0 1-3.57 0.844zM232.026 975.972a8.012 8.012 0 0 1-7.164-4.422 7.996 7.996 0 0 1 3.578-10.734l279.982-139.992a8.006 8.006 0 0 1 10.734 3.578 7.996 7.996 0 0 1-3.578 10.734l-279.982 139.992a8.096 8.096 0 0 1-3.57 0.844z" fill="" /><path d="M296.014 975.972h-63.996c-4.422 0-8-3.578-8-8s3.578-8 8-8h63.996c4.422 0 8 3.578 8 8s-3.578 8-8 8zM496.002 843.98c-4.422 0-8-3.578-8-8v-75.996c0-4.422 3.578-8 8-8s8 3.578 8 8v75.996c0 4.422-3.578 8-8 8zM528 843.98c-4.422 0-8-3.578-8-8v-75.996c0-4.422 3.578-8 8-8s8 3.578 8 8v75.996c0 4.422-3.578 8-8 8zM528 975.972c-4.422 0-8-3.578-8-8v-99.994c0-4.422 3.578-8 8-8s8 3.578 8 8v99.994c0 4.422-3.578 8-8 8z" fill="" /><path d="M528 975.972h-31.998c-4.422 0-8-3.578-8-8s3.578-8 8-8H528c4.422 0 8 3.578 8 8s-3.578 8-8 8z" fill="" /><path d="M496.002 975.972c-4.422 0-8-3.578-8-8v-99.994c0-4.422 3.578-8 8-8s8 3.578 8 8v99.994c0 4.422-3.578 8-8 8zM512 719.988a7.994 7.994 0 0 1-7.998-8V200.02c0-4.422 3.578-8 7.998-8 4.422 0 8 3.578 8 8v511.968c0 4.422-3.578 8-8 8zM599.996 528c-4.422 0-8-3.578-8-8V248.016c0-4.422 3.578-8 8-8s8 3.578 8 8V520c0 4.422-3.578 8-8 8z" fill="" /><path d="M903.976 528h-303.98c-4.422 0-8-3.578-8-8s3.578-8 8-8h303.98c4.422 0 8 3.578 8 8s-3.578 8-8 8z" fill="" /><path d="M903.976 607.994h-303.98c-4.422 0-8-3.578-8-8a7.994 7.994 0 0 1 8-7.998h303.98c4.422 0 8 3.578 8 7.998 0 4.422-3.578 8-8 8z" fill="" /><path d="M871.978 639.992H631.994c-4.422 0-8-3.578-8-8s3.578-8 8-8h239.984c4.422 0 8 3.578 8 8s-3.578 8-8 8z" fill="" /><path d="M823.982 671.99h-143.992a7.994 7.994 0 0 1-7.998-8 7.994 7.994 0 0 1 7.998-7.998h143.992a7.994 7.994 0 0 1 7.998 7.998c0 4.422-3.578 8-7.998 8z" fill="" /><path d="M424.006 607.994H120.026c-4.422 0-8-3.578-8-8a7.994 7.994 0 0 1 8-7.998h303.98c4.422 0 8 3.578 8 7.998 0 4.422-3.578 8-8 8z" fill="" /><path d="M392.008 639.992H152.024c-4.422 0-8-3.578-8-8s3.578-8 8-8h239.984c4.422 0 8 3.578 8 8s-3.578 8-8 8z" fill="" /><path d="M344.012 671.99H200.02c-4.422 0-8-3.578-8-8a7.994 7.994 0 0 1 8-7.998h143.992a7.994 7.994 0 0 1 7.998 7.998c0 4.422-3.578 8-7.998 8z" fill="" /><path d="M631.994 464.002a7.996 7.996 0 0 1-5.656-13.654l95.994-95.994a8 8 0 0 1 11.312 11.31l-95.996 95.994a7.968 7.968 0 0 1-5.654 2.344z" fill="" /><path d="M775.984 416.006a7.976 7.976 0 0 1-5.656-2.344l-47.996-47.998a8 8 0 0 1 11.312-11.31l47.996 47.996a8 8 0 0 1-5.656 13.656z" fill="" /><path d="M775.984 416.006a8 8 0 0 1-5.656-13.656l127.992-127.992a8 8 0 1 1 11.312 11.312l-127.992 127.992a7.974 7.974 0 0 1-5.656 2.344z" fill="" /><path d="M903.976 320.012c-4.422 0-8-3.578-8-8v-31.998c0-4.422 3.578-8 8-8s8 3.578 8 8v31.998c0 4.422-3.578 8-8 8z" fill="" /><path d="M903.976 288.014h-31.998c-4.42 0-7.998-3.578-7.998-8s3.578-8 7.998-8h31.998c4.422 0 8 3.578 8 8s-3.578 8-8 8z" fill="" /></svg>